<svg width="129" height="138" viewBox="0 0 129 138" fill="none" xmlns="http://www.w3.org/2000/svg">
<g clip-path="url(#clip0)">
<rect x="8" y="9" width="110" height="121" rx="10" fill="#DD182B"/>
<path d="M59.938 112.762C55.62 112.762 52.4027 111.45 50.286 108.825C48.254 106.2 47.238 102.729 47.238 98.411C47.238 96.2097 47.492 93.966 48 91.68L56.128 53.58H51.937L52.953 48.5H57.144L60.954 30.974L79.75 28.434C78.988 31.6513 78.5647 33.5563 78.48 34.149C77.8873 36.5197 76.8713 41.3033 75.432 48.5H83.052L82.036 53.58H74.416L66.288 91.68C65.8647 93.5427 65.653 95.0243 65.653 96.125C65.653 99.173 67.1347 100.697 70.098 100.697C71.622 100.697 72.7227 100.57 73.4 100.316C71.7067 105.227 69.717 108.529 67.431 110.222C65.145 111.915 62.6473 112.762 59.938 112.762Z" fill="white"/>
</g>
<defs>
<clipPath id="clip0">
<rect width="129" height="138" fill="white"/>
</clipPath>
</defs>
</svg>
