<svg width="1227" height="271" viewBox="0 0 1227 271" fill="none" xmlns="http://www.w3.org/2000/svg">
<path d="M222.29 204.62C211.31 204.62 203.21 201.74 197.99 195.98C192.95 190.04 190.43 182.75 190.43 174.11C190.43 170.33 190.88 166.1 191.78 161.42C192.68 156.56 193.58 151.88 194.48 147.38C195.56 142.88 196.28 140 196.64 138.74C198.08 132.44 199.43 126.23 200.69 120.11C201.95 113.99 202.58 109.04 202.58 105.26C202.58 96.08 199.34 91.49 192.86 91.49C188.36 91.49 184.31 93.65 180.71 97.97C177.29 102.29 174.5 107.87 172.34 114.71C166.94 142.97 161.45 172.4 155.87 203H116.99L153.98 30.74C147.68 30.2 135.8 28.67 118.34 26.15L80.27 203H41.39L80 23.72C62.9 24.44 49.58 28.85 40.04 36.95C30.5 45.05 25.73 59 25.73 78.8C25.73 85.46 26.36 90.14 27.62 92.84C28.88 95.36 29.51 96.8 29.51 97.16C19.79 97.16 12.5 95.18 7.64 91.22C2.96 87.08 0.62 80.33 0.62 70.97C0.62 58.37 4.04 46.76 10.88 36.14C17.72 25.52 28.25 16.97 42.47 10.49C56.69 4.00999 74.42 0.769997 95.66 0.769997C99.26 0.769997 106.91 1.58 118.61 3.2C140.03 6.25999 156.68 7.78999 168.56 7.78999C184.04 7.78999 194.93 5.62999 201.23 1.30999C198.53 6.34999 196.28 11.12 194.48 15.62C192.86 20.12 190.79 27.5 188.27 37.76C185.75 47.84 182.51 62.78 178.55 82.58C187.73 72.14 198.44 66.92 210.68 66.92C219.86 66.92 227.15 69.44 232.55 74.48C237.95 79.52 240.65 87.17 240.65 97.43C240.65 102.65 240.02 108.5 238.76 114.98C237.5 121.28 235.7 129.02 233.36 138.2C231.92 143.78 230.57 149.27 229.31 154.67C228.23 159.89 227.69 164.03 227.69 167.09C227.69 170.69 228.5 173.48 230.12 175.46C231.74 177.44 234.53 178.43 238.49 178.43C243.89 178.43 248.21 176.54 251.45 172.76C254.69 168.8 257.93 162.77 261.17 154.67H272.51C265.85 174.47 258.11 187.79 249.29 194.63C240.65 201.29 231.65 204.62 222.29 204.62ZM303.21 270.5C294.57 270.5 287.37 268.25 281.61 263.75C275.85 259.25 272.97 252.77 272.97 244.31C272.97 234.05 277.11 225.77 285.39 219.47C293.67 213.35 304.2 208.22 316.98 204.08L320.22 189.5C315 195.26 309.69 199.22 304.29 201.38C298.89 203.54 293.4 204.62 287.82 204.62C279.18 204.62 272.16 201.92 266.76 196.52C261.54 191.12 258.93 183.02 258.93 172.22C258.93 167.72 259.65 161.87 261.09 154.67L279.45 68H318.33L298.89 159.8C298.35 161.96 298.08 164.21 298.08 166.55C298.08 174.47 300.78 178.43 306.18 178.43C310.86 178.43 315 176.45 318.6 172.49C322.2 168.35 325.08 162.95 327.24 156.29L346.14 68H385.02L358.29 193.28C366.93 190.4 373.86 186.08 379.08 180.32C384.3 174.56 388.71 166.01 392.31 154.67H403.65C398.79 170.69 392.22 182.48 383.94 190.04C375.66 197.42 366.3 202.46 355.86 205.16L351.81 224.6C348.21 242.06 342 254.03 333.18 260.51C324.36 267.17 314.37 270.5 303.21 270.5ZM297 249.44C300.06 249.44 303.03 247.37 305.91 243.23C308.79 239.09 311.04 233.15 312.66 225.41L314.28 217.58C296.64 224.06 287.82 231.71 287.82 240.53C287.82 242.87 288.63 244.94 290.25 246.74C291.87 248.54 294.12 249.44 297 249.44ZM410.758 68H449.638L446.128 84.74C452.248 79.34 457.738 75.2 462.598 72.32C467.638 69.44 473.038 68 478.798 68C484.558 68 489.058 69.98 492.298 73.94C495.718 77.9 497.428 82.67 497.428 88.25C497.428 93.47 495.718 98.06 492.298 102.02C488.878 105.98 484.108 107.96 477.988 107.96C474.028 107.96 471.328 107.06 469.888 105.26C468.628 103.28 467.638 100.49 466.918 96.89C466.378 94.55 465.838 92.84 465.298 91.76C464.758 90.68 463.768 90.14 462.328 90.14C458.548 90.14 455.308 90.95 452.608 92.57C450.088 94.01 446.758 96.62 442.618 100.4L421.018 203H382.138L410.758 68ZM533.332 204.08C520.012 204.08 509.482 200.66 501.742 193.82C494.002 186.98 490.132 176.18 490.132 161.42C490.132 149.18 492.652 135.59 497.692 120.65C502.732 105.71 510.832 92.84 521.992 82.04C533.152 71.06 547.192 65.57 564.112 65.57C587.152 65.57 598.672 79.97 598.672 108.77V109.04C599.212 109.22 600.202 109.31 601.642 109.31C607.582 109.31 614.422 107.78 622.162 104.72C629.902 101.48 636.922 97.61 643.222 93.11L645.652 100.4C640.432 105.98 633.592 110.75 625.132 114.71C616.852 118.49 607.762 121.19 597.862 122.81C596.422 139.19 592.732 153.5 586.792 165.74C580.852 177.98 573.202 187.43 563.842 194.09C554.482 200.75 544.312 204.08 533.332 204.08ZM544.132 179.78C548.452 179.78 552.772 177.35 557.092 172.49C561.412 167.45 565.192 160.7 568.432 152.24C571.672 143.6 574.012 134.06 575.452 123.62C570.592 122.54 568.162 118.76 568.162 112.28C568.162 104.9 570.952 100.04 576.532 97.7C576.172 91.76 575.272 87.71 573.832 85.55C572.392 83.21 569.872 82.04 566.272 82.04C560.332 82.04 554.572 86.36 548.992 95C543.412 103.64 538.912 113.99 535.492 126.05C532.072 138.11 530.362 148.73 530.362 157.91C530.362 166.55 531.352 172.4 533.332 175.46C535.312 178.34 538.912 179.78 544.132 179.78ZM651.984 204.08C638.664 204.08 628.134 200.66 620.394 193.82C612.654 186.98 608.784 176.18 608.784 161.42C608.784 149 611.214 135.41 616.074 120.65C620.934 105.71 628.854 92.84 639.834 82.04C650.814 71.06 664.854 65.57 681.954 65.57C703.194 65.57 714.624 77.72 716.244 102.02C720.204 101.12 723.714 98.96 726.774 95.54C729.834 91.94 732.714 87.89 735.414 83.39H744.054C739.194 93.11 734.874 100.76 731.094 106.34C727.314 111.74 722.364 116.15 716.244 119.57C715.164 136.49 711.654 151.34 705.714 164.12C699.954 176.9 692.394 186.8 683.034 193.82C673.674 200.66 663.324 204.08 651.984 204.08ZM662.784 179.78C669.444 179.78 675.654 174.38 681.414 163.58C687.174 152.78 691.134 139.46 693.294 123.62C688.974 122 686.814 117.95 686.814 111.47C686.814 104.45 689.334 99.77 694.374 97.43C694.014 91.67 693.024 87.71 691.404 85.55C689.964 83.21 687.534 82.04 684.114 82.04C678.174 82.04 672.504 86.36 667.104 95C661.704 103.46 657.294 113.81 653.874 126.05C650.634 138.11 649.014 148.73 649.014 157.91C649.014 166.55 650.004 172.4 651.984 175.46C653.964 178.34 657.564 179.78 662.784 179.78ZM773.837 204.08C767.897 204.08 762.857 202.01 758.717 197.87C754.577 193.73 752.507 188.69 752.507 182.75C752.507 176.81 754.577 171.77 758.717 167.63C762.857 163.31 767.897 161.15 773.837 161.15C779.777 161.15 784.817 163.31 788.957 167.63C793.277 171.77 795.437 176.81 795.437 182.75C795.437 188.69 793.277 193.73 788.957 197.87C784.817 202.01 779.777 204.08 773.837 204.08ZM853.674 204.62C840.354 204.62 830.004 201.2 822.624 194.36C815.244 187.34 811.554 176.45 811.554 161.69C811.554 149.27 813.984 135.59 818.844 120.65C823.884 105.71 831.804 92.84 842.604 82.04C853.584 71.06 867.444 65.57 884.184 65.57C894.984 65.57 902.634 67.91 907.134 72.59C911.814 77.27 914.154 83.21 914.154 90.41C914.154 96.71 912.804 101.57 910.104 104.99C907.404 108.41 903.984 110.12 899.844 110.12C896.784 110.12 893.634 109.04 890.394 106.88C892.554 100.94 893.634 95.63 893.634 90.95C893.634 87.53 893.004 84.83 891.744 82.85C890.484 80.87 888.594 79.88 886.074 79.88C880.674 79.88 875.274 84.29 869.874 93.11C864.474 101.93 860.064 112.64 856.644 125.24C853.224 137.84 851.514 149.18 851.514 159.26C851.514 168.08 853.044 174.11 856.104 177.35C859.164 180.41 864.114 181.94 870.954 181.94C880.674 181.94 888.954 179.69 895.794 175.19C902.814 170.69 910.464 163.85 918.744 154.67H927.924C907.944 187.97 883.194 204.62 853.674 204.62ZM958.108 204.08C944.788 204.08 934.258 200.66 926.518 193.82C918.778 186.98 914.907 176.18 914.907 161.42C914.907 149.18 917.427 135.59 922.468 120.65C927.508 105.71 935.608 92.84 946.768 82.04C957.928 71.06 971.968 65.57 988.888 65.57C1011.93 65.57 1023.45 79.97 1023.45 108.77V109.04C1023.99 109.22 1024.98 109.31 1026.42 109.31C1032.36 109.31 1039.2 107.78 1046.94 104.72C1054.68 101.48 1061.7 97.61 1068 93.11L1070.43 100.4C1065.21 105.98 1058.37 110.75 1049.91 114.71C1041.63 118.49 1032.54 121.19 1022.64 122.81C1021.2 139.19 1017.51 153.5 1011.57 165.74C1005.63 177.98 997.978 187.43 988.618 194.09C979.258 200.75 969.088 204.08 958.108 204.08ZM968.908 179.78C973.228 179.78 977.548 177.35 981.868 172.49C986.188 167.45 989.968 160.7 993.208 152.24C996.448 143.6 998.788 134.06 1000.23 123.62C995.368 122.54 992.938 118.76 992.938 112.28C992.938 104.9 995.728 100.04 1001.31 97.7C1000.95 91.76 1000.05 87.71 998.608 85.55C997.168 83.21 994.648 82.04 991.048 82.04C985.108 82.04 979.348 86.36 973.768 95C968.188 103.64 963.688 113.99 960.268 126.05C956.848 138.11 955.138 148.73 955.138 157.91C955.138 166.55 956.128 172.4 958.108 175.46C960.088 178.34 963.688 179.78 968.908 179.78ZM1196.91 204.62C1187.37 204.62 1180.44 201.74 1176.12 195.98C1171.8 190.22 1169.64 182.93 1169.64 174.11C1169.64 170.33 1170.09 166.1 1170.99 161.42C1171.89 156.56 1172.79 151.88 1173.69 147.38C1174.77 142.88 1175.49 140 1175.85 138.74C1177.29 132.44 1178.64 126.23 1179.9 120.11C1181.16 113.99 1181.79 109.04 1181.79 105.26C1181.79 96.08 1178.55 91.49 1172.07 91.49C1167.39 91.49 1163.25 93.83 1159.65 98.51C1156.05 103.01 1153.17 108.95 1151.01 116.33L1132.65 203H1093.77L1113.48 109.85C1114.02 107.69 1114.29 105.44 1114.29 103.1C1114.29 95.18 1111.59 91.22 1106.19 91.22C1101.15 91.22 1096.74 93.56 1092.96 98.24C1089.36 102.74 1086.48 108.77 1084.32 116.33L1065.96 203H1027.08L1055.7 68H1094.58L1091.61 82.04C1100.79 71.78 1111.77 66.65 1124.55 66.65C1140.39 66.65 1149.66 74.39 1152.36 89.87C1162.26 74.57 1174.77 66.92 1189.89 66.92C1199.07 66.92 1206.36 69.44 1211.76 74.48C1217.16 79.52 1219.86 87.17 1219.86 97.43C1219.86 102.65 1219.23 108.5 1217.97 114.98C1216.71 121.28 1214.91 129.02 1212.57 138.2C1211.13 143.78 1209.78 149.27 1208.52 154.67C1207.44 159.89 1206.9 164.03 1206.9 167.09C1206.9 170.69 1207.71 173.48 1209.33 175.46C1210.95 177.44 1213.74 178.43 1217.7 178.43C1222.02 178.43 1224.99 177.89 1226.61 176.81C1225.53 185.99 1222.2 192.92 1216.62 197.6C1211.22 202.28 1204.65 204.62 1196.91 204.62Z" fill="#C51010"/>
</svg>
